G04 #@! TF.GenerationSoftware,KiCad,Pcbnew,(5.0.0)*
G04 #@! TF.CreationDate,2018-09-14T11:50:53-04:00*
G04 #@! TF.ProjectId,one-counter,6F6E652D636F756E7465722E6B696361,rev?*
G04 #@! TF.SameCoordinates,Original*
G04 #@! TF.FileFunction,Copper,L1,Top,Signal*
G04 #@! TF.FilePolarity,Positive*
%FSLAX46Y46*%
G04 Gerber Fmt 4.6, Leading zero omitted, Abs format (unit mm)*
G04 Created by KiCad (PCBNEW (5.0.0)) date 09/14/18 11:50:53*
%MOMM*%
%LPD*%
G01*
G04 APERTURE LIST*
G04 #@! TA.AperFunction,ComponentPad*
%ADD10R,2.000000X2.000000*%
G04 #@! TD*
G04 #@! TA.AperFunction,ComponentPad*
%ADD11C,2.000000*%
G04 #@! TD*
G04 #@! TA.AperFunction,ComponentPad*
%ADD12R,1.700000X1.700000*%
G04 #@! TD*
G04 #@! TA.AperFunction,ComponentPad*
%ADD13O,1.700000X1.700000*%
G04 #@! TD*
G04 #@! TA.AperFunction,ComponentPad*
%ADD14C,1.700000*%
G04 #@! TD*
G04 #@! TA.AperFunction,ComponentPad*
%ADD15R,1.200000X1.200000*%
G04 #@! TD*
G04 #@! TA.AperFunction,ComponentPad*
%ADD16C,1.200000*%
G04 #@! TD*
G04 #@! TA.AperFunction,ComponentPad*
%ADD17C,1.400000*%
G04 #@! TD*
G04 #@! TA.AperFunction,ComponentPad*
%ADD18O,1.400000X1.400000*%
G04 #@! TD*
G04 #@! TA.AperFunction,ComponentPad*
%ADD19C,1.600000*%
G04 #@! TD*
G04 #@! TA.AperFunction,Conductor*
%ADD20C,0.254000*%
G04 #@! TD*
G04 APERTURE END LIST*
D10*
G04 #@! TO.P,U1,1*
G04 #@! TO.N,N/C*
X175260000Y-92075000D03*
D11*
G04 #@! TO.P,U1,2*
G04 #@! TO.N,GND*
X175260000Y-89535000D03*
G04 #@! TO.P,U1,3*
G04 #@! TO.N,+5V*
X175260000Y-86995000D03*
G04 #@! TD*
D12*
G04 #@! TO.P,U8,1*
G04 #@! TO.N,U8-1*
X162560000Y-104140000D03*
D13*
G04 #@! TO.P,U8,2*
G04 #@! TO.N,U8-2*
X162560000Y-101600000D03*
G04 #@! TO.P,U8,3*
G04 #@! TO.N,N/C*
X162560000Y-99060000D03*
G04 #@! TO.P,U8,4*
X162560000Y-96520000D03*
G04 #@! TO.P,U8,5*
X162560000Y-93980000D03*
G04 #@! TO.P,U8,6*
X162560000Y-91440000D03*
G04 #@! TO.P,U8,7*
G04 #@! TO.N,U8-7*
X162560000Y-88900000D03*
G04 #@! TD*
G04 #@! TO.P,J2,7*
G04 #@! TO.N,U8-2*
X162560000Y-107950000D03*
G04 #@! TO.P,J2,6*
G04 #@! TO.N,U8-1*
X165100000Y-107950000D03*
G04 #@! TO.P,J2,5*
G04 #@! TO.N,U8-7*
X167640000Y-107950000D03*
G04 #@! TO.P,J2,4*
G04 #@! TO.N,U2-2*
X170180000Y-107950000D03*
G04 #@! TO.P,J2,3*
G04 #@! TO.N,U5-12*
X172720000Y-107950000D03*
G04 #@! TO.P,J2,2*
G04 #@! TO.N,GND*
X175260000Y-107950000D03*
D12*
G04 #@! TO.P,J2,1*
G04 #@! TO.N,+5V*
X177800000Y-107950000D03*
G04 #@! TD*
G04 #@! TO.P,U4,1*
G04 #@! TO.N,U4-1*
X170180000Y-118110000D03*
D13*
G04 #@! TO.P,U4,2*
G04 #@! TO.N,GND*
X170180000Y-120650000D03*
G04 #@! TO.P,U4,3*
X170180000Y-123190000D03*
G04 #@! TO.P,U4,4*
G04 #@! TO.N,N/C*
X170180000Y-125730000D03*
G04 #@! TO.P,U4,5*
G04 #@! TO.N,+5V*
X170180000Y-128270000D03*
G04 #@! TO.P,U4,6*
G04 #@! TO.N,GND*
X170180000Y-130810000D03*
G04 #@! TO.P,U4,7*
X170180000Y-133350000D03*
G04 #@! TD*
D12*
G04 #@! TO.P,U2,1*
G04 #@! TO.N,GND*
X173990000Y-104140000D03*
D13*
G04 #@! TO.P,U2,2*
G04 #@! TO.N,U2-2*
X173990000Y-101600000D03*
G04 #@! TO.P,U2,3*
G04 #@! TO.N,/1Hz*
X173990000Y-99060000D03*
G04 #@! TO.P,U2,4*
G04 #@! TO.N,+5V*
X173990000Y-96520000D03*
G04 #@! TD*
D12*
G04 #@! TO.P,U6,1*
G04 #@! TO.N,Net-(U5-Pad9)*
X166370000Y-104140000D03*
D13*
G04 #@! TO.P,U6,2*
G04 #@! TO.N,Net-(U5-Pad8)*
X166370000Y-101600000D03*
G04 #@! TO.P,U6,3*
G04 #@! TO.N,N/C*
X166370000Y-99060000D03*
G04 #@! TO.P,U6,4*
X166370000Y-96520000D03*
G04 #@! TO.P,U6,5*
X166370000Y-93980000D03*
G04 #@! TO.P,U6,6*
G04 #@! TO.N,Net-(U5-Pad11)*
X166370000Y-91440000D03*
G04 #@! TO.P,U6,7*
G04 #@! TO.N,U5-12*
X166370000Y-88900000D03*
G04 #@! TO.P,U6,8*
G04 #@! TO.N,GND*
X166370000Y-86360000D03*
G04 #@! TD*
G04 #@! TO.P,U3,5*
G04 #@! TO.N,Net-(C1-Pad1)*
X166370000Y-125730000D03*
G04 #@! TO.P,U3,6*
G04 #@! TO.N,U3-6*
X166370000Y-123190000D03*
G04 #@! TO.P,U3,7*
G04 #@! TO.N,Net-(R1-Pad2)*
X166370000Y-120650000D03*
D14*
G04 #@! TO.P,U3,8*
G04 #@! TO.N,+5V*
X166370000Y-118110000D03*
G04 #@! TD*
D13*
G04 #@! TO.P,U5,8*
G04 #@! TO.N,Net-(U5-Pad8)*
X170180000Y-88900000D03*
G04 #@! TO.P,U5,9*
G04 #@! TO.N,Net-(U5-Pad9)*
X170180000Y-91440000D03*
G04 #@! TO.P,U5,10*
G04 #@! TO.N,GND*
X170180000Y-93980000D03*
G04 #@! TO.P,U5,11*
G04 #@! TO.N,Net-(U5-Pad11)*
X170180000Y-96520000D03*
G04 #@! TO.P,U5,12*
G04 #@! TO.N,U5-12*
X170180000Y-99060000D03*
G04 #@! TO.P,U5,13*
G04 #@! TO.N,N/C*
X170180000Y-101600000D03*
D14*
G04 #@! TO.P,U5,14*
G04 #@! TO.N,/1Hz*
X170180000Y-104140000D03*
G04 #@! TD*
D13*
G04 #@! TO.P,U7,9*
G04 #@! TO.N,U7-9*
X173990000Y-135890000D03*
G04 #@! TO.P,U7,10*
G04 #@! TO.N,Net-(U7-Pad10)*
X173990000Y-133350000D03*
G04 #@! TO.P,U7,11*
G04 #@! TO.N,Net-(U7-Pad11)*
X173990000Y-130810000D03*
G04 #@! TO.P,U7,12*
G04 #@! TO.N,Net-(U7-Pad12)*
X173990000Y-128270000D03*
G04 #@! TO.P,U7,13*
G04 #@! TO.N,U7-13*
X173990000Y-125730000D03*
G04 #@! TO.P,U7,14*
G04 #@! TO.N,Net-(U7-Pad14)*
X173990000Y-123190000D03*
G04 #@! TO.P,U7,15*
G04 #@! TO.N,U7-15*
X173990000Y-120650000D03*
D14*
G04 #@! TO.P,U7,16*
G04 #@! TO.N,+5V*
X173990000Y-118110000D03*
G04 #@! TD*
G04 #@! TO.P,U9,14*
G04 #@! TO.N,+5V*
X177800000Y-118110000D03*
D13*
G04 #@! TO.P,U9,13*
G04 #@! TO.N,Net-(U7-Pad12)*
X177800000Y-120650000D03*
G04 #@! TO.P,U9,12*
G04 #@! TO.N,N/C*
X177800000Y-123190000D03*
G04 #@! TO.P,U9,11*
G04 #@! TO.N,Net-(U7-Pad14)*
X177800000Y-125730000D03*
G04 #@! TO.P,U9,10*
G04 #@! TO.N,Net-(U7-Pad11)*
X177800000Y-128270000D03*
G04 #@! TO.P,U9,9*
G04 #@! TO.N,N/C*
X177800000Y-130810000D03*
G04 #@! TO.P,U9,8*
G04 #@! TO.N,Net-(U7-Pad10)*
X177800000Y-133350000D03*
G04 #@! TD*
D15*
G04 #@! TO.P,C2,1*
G04 #@! TO.N,U3-6*
X162560000Y-131445000D03*
D16*
G04 #@! TO.P,C2,2*
G04 #@! TO.N,GND*
X162560000Y-132945000D03*
G04 #@! TD*
D12*
G04 #@! TO.P,J1,1*
G04 #@! TO.N,+5V*
X162560000Y-114300000D03*
D13*
G04 #@! TO.P,J1,2*
G04 #@! TO.N,GND*
X165100000Y-114300000D03*
G04 #@! TO.P,J1,3*
G04 #@! TO.N,U4-1*
X167640000Y-114300000D03*
G04 #@! TO.P,J1,4*
G04 #@! TO.N,U3-6*
X170180000Y-114300000D03*
G04 #@! TO.P,J1,5*
G04 #@! TO.N,U7-9*
X172720000Y-114300000D03*
G04 #@! TO.P,J1,6*
G04 #@! TO.N,U7-13*
X175260000Y-114300000D03*
G04 #@! TO.P,J1,7*
G04 #@! TO.N,U7-15*
X177800000Y-114300000D03*
G04 #@! TD*
D17*
G04 #@! TO.P,R1,1*
G04 #@! TO.N,+5V*
X162560000Y-118110000D03*
D18*
G04 #@! TO.P,R1,2*
G04 #@! TO.N,Net-(R1-Pad2)*
X162560000Y-120650000D03*
G04 #@! TD*
G04 #@! TO.P,R2,2*
G04 #@! TO.N,U3-6*
X162560000Y-125730000D03*
D17*
G04 #@! TO.P,R2,1*
G04 #@! TO.N,Net-(R1-Pad2)*
X162560000Y-123190000D03*
G04 #@! TD*
D19*
G04 #@! TO.P,C1,1*
G04 #@! TO.N,Net-(C1-Pad1)*
X166370000Y-129540000D03*
G04 #@! TO.P,C1,2*
G04 #@! TO.N,GND*
X166370000Y-134540000D03*
G04 #@! TD*
D20*
G04 #@! TO.N,Net-(C1-Pad1)*
X166370000Y-125730000D02*
X166370000Y-129540000D01*
G04 #@! TO.N,GND*
X171029999Y-94829999D02*
X171664999Y-94829999D01*
X170180000Y-93980000D02*
X171029999Y-94829999D01*
X171664999Y-94829999D02*
X172085000Y-95250000D01*
X172987600Y-104140000D02*
X173990000Y-104140000D01*
X172085000Y-103237400D02*
X172987600Y-104140000D01*
X172085000Y-95250000D02*
X172085000Y-103237400D01*
X175260000Y-107950000D02*
X175260000Y-106680000D01*
X173990000Y-105410000D02*
X173990000Y-104140000D01*
X175260000Y-106680000D02*
X173990000Y-105410000D01*
X175260000Y-88900000D02*
X174260001Y-89899999D01*
X173625001Y-90534999D02*
X170180000Y-93980000D01*
X173625001Y-89899999D02*
X173625001Y-90534999D01*
X166370000Y-86360000D02*
X167640000Y-87630000D01*
X167640000Y-87630000D02*
X171450000Y-87630000D01*
X171450000Y-87724998D02*
X173625001Y-89899999D01*
X171450000Y-87630000D02*
X171450000Y-87724998D01*
X170180000Y-123190000D02*
X170180000Y-120650000D01*
X164775000Y-132945000D02*
X166370000Y-134540000D01*
X162560000Y-132945000D02*
X164775000Y-132945000D01*
X167560000Y-133350000D02*
X170180000Y-133350000D01*
X166370000Y-134540000D02*
X167560000Y-133350000D01*
X170180000Y-133350000D02*
X170180000Y-130810000D01*
X171450000Y-124460000D02*
X170180000Y-123190000D01*
X170180000Y-130810000D02*
X171450000Y-129540000D01*
X171450000Y-129540000D02*
X171450000Y-124460000D01*
X174260001Y-89899999D02*
X173625001Y-89899999D01*
G04 #@! TO.N,+5V*
X175895000Y-106045000D02*
X177800000Y-107950000D01*
X173990000Y-96520000D02*
X175895000Y-98425000D01*
X175895000Y-98425000D02*
X175895000Y-106045000D01*
X176784000Y-88519000D02*
X175260000Y-86995000D01*
X173990000Y-96520000D02*
X176784000Y-93726000D01*
X176784000Y-93726000D02*
X176784000Y-88519000D01*
X166370000Y-118110000D02*
X162560000Y-118110000D01*
G04 #@! TO.N,Net-(R1-Pad2)*
X166370000Y-120650000D02*
X162560000Y-120650000D01*
X162560000Y-120650000D02*
X162560000Y-123190000D01*
G04 #@! TO.N,Net-(U5-Pad9)*
X167372400Y-104140000D02*
X166370000Y-104140000D01*
X168627410Y-102884990D02*
X167372400Y-104140000D01*
X168627410Y-92992590D02*
X168627410Y-102884990D01*
X170180000Y-91440000D02*
X168627410Y-92992590D01*
G04 #@! TO.N,Net-(U5-Pad8)*
X167640000Y-91440000D02*
X170180000Y-88900000D01*
X166370000Y-101600000D02*
X167640000Y-100330000D01*
X167640000Y-100330000D02*
X167640000Y-91440000D01*
G04 #@! TO.N,Net-(U7-Pad10)*
X177800000Y-133350000D02*
X173990000Y-133350000D01*
G04 #@! TO.N,Net-(U7-Pad11)*
X175260000Y-130810000D02*
X177800000Y-128270000D01*
X173990000Y-130810000D02*
X175260000Y-130810000D01*
G04 #@! TO.N,Net-(U7-Pad12)*
X175895000Y-122555000D02*
X177800000Y-120650000D01*
X173990000Y-128270000D02*
X175895000Y-126365000D01*
X175895000Y-126365000D02*
X175895000Y-122555000D01*
G04 #@! TO.N,U4-1*
X170180000Y-116840000D02*
X167640000Y-114300000D01*
X170180000Y-118110000D02*
X170180000Y-116840000D01*
G04 #@! TO.N,U5-12*
X171450000Y-106680000D02*
X172720000Y-107950000D01*
X170180000Y-99060000D02*
X171450000Y-100330000D01*
X171450000Y-100330000D02*
X171450000Y-106680000D01*
G04 #@! TO.N,U3-6*
X162560000Y-131445000D02*
X162560000Y-125730000D01*
X162560000Y-125730000D02*
X163830000Y-125730000D01*
X163830000Y-125730000D02*
X166370000Y-123190000D01*
X166370000Y-123190000D02*
X167640000Y-123190000D01*
X167640000Y-123190000D02*
X168275000Y-122555000D01*
X168275000Y-122555000D02*
X168275000Y-120015000D01*
X168275000Y-120015000D02*
X168910000Y-119380000D01*
X171107162Y-119380000D02*
X171450000Y-119037162D01*
X168910000Y-119380000D02*
X171107162Y-119380000D01*
X171450000Y-115570000D02*
X170180000Y-114300000D01*
X171450000Y-119037162D02*
X171450000Y-115570000D01*
G04 #@! TO.N,U7-9*
X171870001Y-115149999D02*
X172720000Y-114300000D01*
X171870001Y-133770001D02*
X171870001Y-115149999D01*
X173990000Y-135890000D02*
X171870001Y-133770001D01*
G04 #@! TO.N,U7-13*
X174410001Y-115149999D02*
X175260000Y-114300000D01*
X172720000Y-116840000D02*
X174410001Y-115149999D01*
X172720000Y-124460000D02*
X172720000Y-116840000D01*
X173990000Y-125730000D02*
X172720000Y-124460000D01*
G04 #@! TO.N,U7-15*
X173990000Y-120650000D02*
X175895000Y-118745000D01*
X175895000Y-116205000D02*
X177800000Y-114300000D01*
X175895000Y-118745000D02*
X175895000Y-116205000D01*
G04 #@! TO.N,U8-2*
X162560000Y-106747919D02*
X162560000Y-107950000D01*
X161290000Y-105477919D02*
X162560000Y-106747919D01*
X162560000Y-101600000D02*
X161290000Y-102870000D01*
X161290000Y-102870000D02*
X161290000Y-105477919D01*
G04 #@! TO.N,U8-1*
X163562400Y-104140000D02*
X162560000Y-104140000D01*
X165100000Y-105677600D02*
X163562400Y-104140000D01*
X165100000Y-107950000D02*
X165100000Y-105677600D01*
G04 #@! TO.N,U8-7*
X167640000Y-107950000D02*
X167640000Y-106680000D01*
X167640000Y-106680000D02*
X166370000Y-105410000D01*
X165442838Y-105410000D02*
X165100000Y-105067162D01*
X166370000Y-105410000D02*
X165442838Y-105410000D01*
X165100000Y-91440000D02*
X162560000Y-88900000D01*
X165100000Y-105067162D02*
X165100000Y-91440000D01*
G04 #@! TD*
M02*
