M48
INCH,TZ
T1C0.0236
T2C0.0276
T3C0.0315
T4C0.0394
%
G90
G05
T1
X64000Y-51750
X64000Y-52341
T2
X64000Y-48500
X64000Y-49500
X64000Y-46500
X64000Y-47500
T3
X65500Y-51000
X65500Y-52969
T4
X65500Y-34000
X65500Y-35000
X65500Y-36000
X65500Y-37000
X65500Y-38000
X65500Y-39000
X65500Y-40000
X65500Y-41000
X67000Y-46500
X67000Y-47500
X67000Y-48500
X67000Y-49500
X67000Y-50500
X67000Y-51500
X67000Y-52500
X64000Y-35000
X64000Y-36000
X64000Y-37000
X64000Y-38000
X64000Y-39000
X64000Y-40000
X64000Y-41000
X68500Y-46500
X68500Y-47500
X68500Y-48500
X68500Y-49500
X68500Y-50500
X68500Y-51500
X68500Y-52500
X68500Y-53500
X65500Y-46500
X65500Y-47500
X65500Y-48500
X65500Y-49500
X64000Y-45000
X65000Y-45000
X66000Y-45000
X67000Y-45000
X68000Y-45000
X69000Y-45000
X70000Y-45000
X68500Y-38000
X68500Y-39000
X68500Y-40000
X68500Y-41000
X64000Y-42500
X65000Y-42500
X66000Y-42500
X67000Y-42500
X68000Y-42500
X69000Y-42500
X70000Y-42500
X70000Y-46500
X70000Y-47500
X70000Y-48500
X70000Y-49500
X70000Y-50500
X70000Y-51500
X70000Y-52500
X69000Y-34250
X69000Y-35250
X69000Y-36250
X67000Y-35000
X67000Y-36000
X67000Y-37000
X67000Y-38000
X67000Y-39000
X67000Y-40000
X67000Y-41000
T0
M30
