G04 #@! TF.GenerationSoftware,KiCad,Pcbnew,(5.0.0)*
G04 #@! TF.CreationDate,2018-09-14T11:50:53-04:00*
G04 #@! TF.ProjectId,one-counter,6F6E652D636F756E7465722E6B696361,rev?*
G04 #@! TF.SameCoordinates,Original*
G04 #@! TF.FileFunction,Soldermask,Bot*
G04 #@! TF.FilePolarity,Negative*
%FSLAX46Y46*%
G04 Gerber Fmt 4.6, Leading zero omitted, Abs format (unit mm)*
G04 Created by KiCad (PCBNEW (5.0.0)) date 09/14/18 11:50:53*
%MOMM*%
%LPD*%
G01*
G04 APERTURE LIST*
%ADD10R,2.101600X2.101600*%
%ADD11C,2.101600*%
%ADD12R,1.801600X1.801600*%
%ADD13O,1.801600X1.801600*%
%ADD14C,1.801600*%
%ADD15R,1.301600X1.301600*%
%ADD16C,1.301600*%
%ADD17C,1.501600*%
%ADD18O,1.501600X1.501600*%
%ADD19C,1.701600*%
G04 APERTURE END LIST*
D10*
G04 #@! TO.C,U1*
X175260000Y-92075000D03*
D11*
X175260000Y-89535000D03*
X175260000Y-86995000D03*
G04 #@! TD*
D12*
G04 #@! TO.C,U8*
X162560000Y-104140000D03*
D13*
X162560000Y-101600000D03*
X162560000Y-99060000D03*
X162560000Y-96520000D03*
X162560000Y-93980000D03*
X162560000Y-91440000D03*
X162560000Y-88900000D03*
G04 #@! TD*
G04 #@! TO.C,J2*
X162560000Y-107950000D03*
X165100000Y-107950000D03*
X167640000Y-107950000D03*
X170180000Y-107950000D03*
X172720000Y-107950000D03*
X175260000Y-107950000D03*
D12*
X177800000Y-107950000D03*
G04 #@! TD*
G04 #@! TO.C,U4*
X170180000Y-118110000D03*
D13*
X170180000Y-120650000D03*
X170180000Y-123190000D03*
X170180000Y-125730000D03*
X170180000Y-128270000D03*
X170180000Y-130810000D03*
X170180000Y-133350000D03*
G04 #@! TD*
D12*
G04 #@! TO.C,U2*
X173990000Y-104140000D03*
D13*
X173990000Y-101600000D03*
X173990000Y-99060000D03*
X173990000Y-96520000D03*
G04 #@! TD*
D12*
G04 #@! TO.C,U6*
X166370000Y-104140000D03*
D13*
X166370000Y-101600000D03*
X166370000Y-99060000D03*
X166370000Y-96520000D03*
X166370000Y-93980000D03*
X166370000Y-91440000D03*
X166370000Y-88900000D03*
X166370000Y-86360000D03*
G04 #@! TD*
G04 #@! TO.C,U3*
X166370000Y-125730000D03*
X166370000Y-123190000D03*
X166370000Y-120650000D03*
D14*
X166370000Y-118110000D03*
G04 #@! TD*
D13*
G04 #@! TO.C,U5*
X170180000Y-88900000D03*
X170180000Y-91440000D03*
X170180000Y-93980000D03*
X170180000Y-96520000D03*
X170180000Y-99060000D03*
X170180000Y-101600000D03*
D14*
X170180000Y-104140000D03*
G04 #@! TD*
D13*
G04 #@! TO.C,U7*
X173990000Y-135890000D03*
X173990000Y-133350000D03*
X173990000Y-130810000D03*
X173990000Y-128270000D03*
X173990000Y-125730000D03*
X173990000Y-123190000D03*
X173990000Y-120650000D03*
D14*
X173990000Y-118110000D03*
G04 #@! TD*
G04 #@! TO.C,U9*
X177800000Y-118110000D03*
D13*
X177800000Y-120650000D03*
X177800000Y-123190000D03*
X177800000Y-125730000D03*
X177800000Y-128270000D03*
X177800000Y-130810000D03*
X177800000Y-133350000D03*
G04 #@! TD*
D15*
G04 #@! TO.C,C2*
X162560000Y-131445000D03*
D16*
X162560000Y-132945000D03*
G04 #@! TD*
D12*
G04 #@! TO.C,J1*
X162560000Y-114300000D03*
D13*
X165100000Y-114300000D03*
X167640000Y-114300000D03*
X170180000Y-114300000D03*
X172720000Y-114300000D03*
X175260000Y-114300000D03*
X177800000Y-114300000D03*
G04 #@! TD*
D17*
G04 #@! TO.C,R1*
X162560000Y-118110000D03*
D18*
X162560000Y-120650000D03*
G04 #@! TD*
G04 #@! TO.C,R2*
X162560000Y-125730000D03*
D17*
X162560000Y-123190000D03*
G04 #@! TD*
D19*
G04 #@! TO.C,C1*
X166370000Y-129540000D03*
X166370000Y-134540000D03*
G04 #@! TD*
M02*
